<svg width="32" height="32" viewBox="0 0 32 32" fill="none" xmlns="http://www.w3.org/2000/svg">
<rect width="32" height="32" rx="6" fill="white"/>
<path d="M10.2654 7.43926C10.8512 6.85363 11.8008 6.85353 12.3865 7.43926L15.5145 10.5672C15.4772 10.603 15.4389 10.6379 15.4022 10.6746C12.2526 13.8242 12.2526 18.9313 15.4022 22.0809C15.4212 22.0999 15.4415 22.1177 15.4607 22.1365L12.3865 25.2117C11.8007 25.7975 10.8512 25.7975 10.2654 25.2117L2.43926 17.3865C1.85353 16.8008 1.85363 15.8512 2.43926 15.2654L10.2654 7.43926ZM15.5145 10.5672C18.6719 7.52721 23.6946 7.56195 26.8074 10.6746C29.957 13.8242 29.957 18.9313 26.8074 22.0809C23.677 25.211 18.6146 25.2287 15.4607 22.1365L20.2117 17.3865C20.7975 16.8007 20.7975 15.8512 20.2117 15.2654L15.5145 10.5672Z" fill="#0F172A"/>
</svg>
