<svg width="28" height="19" viewBox="0 0 28 19" fill="none" xmlns="http://www.w3.org/2000/svg">
<path d="M8.26543 0.439262C8.85123 -0.146369 9.80079 -0.146473 10.3865 0.439262L13.5145 3.56719C13.4772 3.60305 13.4389 3.6379 13.4022 3.67461C10.2526 6.82419 10.2526 11.9313 13.4022 15.0809C13.4212 15.0999 13.4415 15.1177 13.4607 15.1365L10.3865 18.2117C9.80074 18.7975 8.85122 18.7975 8.26543 18.2117L0.439262 10.3865C-0.146473 9.80079 -0.146369 8.85123 0.439262 8.26543L8.26543 0.439262ZM13.5145 3.56719C16.6719 0.52721 21.6946 0.561948 24.8074 3.67461C27.957 6.82419 27.957 11.9313 24.8074 15.0809C21.677 18.211 16.6146 18.2287 13.4607 15.1365L18.2117 10.3865C18.7975 9.80074 18.7975 8.85122 18.2117 8.26543L13.5145 3.56719Z" fill="#0F172A"/>
</svg>
