<svg width="94" height="28" viewBox="0 0 94 28" fill="none" xmlns="http://www.w3.org/2000/svg">
<path d="M39.4378 22.264C37.1278 22.264 35.7638 20.966 35.7638 19.008C35.7638 17.028 37.2378 15.796 39.7678 15.598L43.1558 15.334V15.026C43.1558 13.222 42.0778 12.584 40.6258 12.584C38.8878 12.584 37.8978 13.354 37.8978 14.652H36.0938C36.0938 12.408 37.9418 10.934 40.7138 10.934C43.3758 10.934 45.1798 12.342 45.1798 15.246V22H43.4198L43.1998 20.262C42.6498 21.494 41.1758 22.264 39.4378 22.264ZM40.0318 20.658C41.9898 20.658 43.1778 19.382 43.1778 17.358V16.786L40.4278 17.006C38.6018 17.182 37.8538 17.886 37.8538 18.942C37.8538 20.086 38.6898 20.658 40.0318 20.658ZM50.0457 22H47.9777V5.808H50.0457V16.302L54.8197 11.242H57.4157L53.3017 15.532L57.3937 22H55.0177L51.8717 17.028L50.0457 18.942V22ZM57.8834 16.61C57.8834 13.288 60.2594 10.956 63.4934 10.956C66.7054 10.956 69.0814 13.288 69.0814 16.61C69.0814 19.932 66.7054 22.264 63.4934 22.264C60.2594 22.264 57.8834 19.932 57.8834 16.61ZM59.9734 16.61C59.9734 18.854 61.4034 20.416 63.4934 20.416C65.5614 20.416 67.0134 18.854 67.0134 16.61C67.0134 14.366 65.5614 12.804 63.4934 12.804C61.4034 12.804 59.9734 14.366 59.9734 16.61ZM73.3286 22H71.2606V11.242H73.1086L73.3066 12.65C73.8566 11.638 75.0006 10.934 76.5186 10.934C78.1906 10.934 79.3786 11.77 79.9286 13.112C80.4346 11.77 81.7326 10.934 83.4046 10.934C85.8686 10.934 87.3646 12.474 87.3646 14.96V22H85.3406V15.466C85.3406 13.772 84.3946 12.804 82.9426 12.804C81.3806 12.804 80.3466 13.904 80.3466 15.62V22H78.3006V15.444C78.3006 13.75 77.3766 12.826 75.9246 12.826C74.3626 12.826 73.3286 13.904 73.3286 15.62V22ZM91.1333 8.69C90.3853 8.69 89.7693 8.074 89.7693 7.326C89.7693 6.556 90.3853 5.962 91.1333 5.962C91.8813 5.962 92.4973 6.556 92.4973 7.326C92.4973 8.074 91.8813 8.69 91.1333 8.69ZM90.1213 22V11.242H92.1893V22H90.1213Z" fill="#F8FAFC"/>
<path fill-rule="evenodd" clip-rule="evenodd" d="M0.43934 13.9395C-0.146446 14.5253 -0.146447 15.475 0.43934 16.0608L8.2652 23.8867C8.85099 24.4725 9.80073 24.4725 10.3865 23.8867L13.4604 20.8128C16.6144 23.9044 21.6774 23.8851 24.8076 20.755C27.9572 17.6054 27.9572 12.4989 24.8076 9.34933C21.6948 6.23654 16.6706 6.20018 13.5131 9.24027L10.3865 6.11366C9.80073 5.52787 8.85099 5.52787 8.2652 6.11366L0.43934 13.9395ZM13.5131 9.24027C13.4758 9.2762 13.4388 9.31255 13.402 9.34933C10.2524 12.4989 10.2524 17.6054 13.402 20.755C13.4214 20.7744 13.4409 20.7936 13.4604 20.8128L18.2124 16.0608C18.7982 15.475 18.7982 14.5253 18.2124 13.9395L13.5131 9.24027Z" fill="white"/>
</svg>
