<svg width="92" height="28" viewBox="0 0 92 28" fill="none" xmlns="http://www.w3.org/2000/svg">
<path fill-rule="evenodd" clip-rule="evenodd" d="M0.43934 13.9395C-0.146446 14.5253 -0.146447 15.475 0.43934 16.0608L8.2652 23.8867C8.85099 24.4725 9.80073 24.4725 10.3865 23.8867L13.4604 20.8128C16.6144 23.9044 21.6774 23.8851 24.8076 20.755C27.9572 17.6054 27.9572 12.4989 24.8076 9.34933C21.6948 6.23654 16.6706 6.20018 13.5131 9.24027L10.3865 6.11366C9.80073 5.52787 8.85099 5.52787 8.2652 6.11366L0.43934 13.9395ZM13.5131 9.24027C13.4758 9.27619 13.4388 9.31255 13.402 9.34933C10.2524 12.4989 10.2524 17.6054 13.402 20.755C13.4214 20.7744 13.4409 20.7936 13.4604 20.8128L18.2124 16.0608C18.7982 15.475 18.7982 14.5253 18.2124 13.9395L13.5131 9.24027Z" fill="#0F172A"/>
<path d="M36.8118 22.264C34.5018 22.264 33.1378 20.966 33.1378 19.008C33.1378 17.028 34.6118 15.796 37.1418 15.598L40.5298 15.334V15.026C40.5298 13.222 39.4518 12.584 37.9998 12.584C36.2618 12.584 35.2718 13.354 35.2718 14.652H33.4678C33.4678 12.408 35.3158 10.934 38.0878 10.934C40.7498 10.934 42.5538 12.342 42.5538 15.246V22H40.7938L40.5738 20.262C40.0238 21.494 38.5498 22.264 36.8118 22.264ZM37.4058 20.658C39.3638 20.658 40.5518 19.382 40.5518 17.358V16.786L37.8018 17.006C35.9758 17.182 35.2278 17.886 35.2278 18.942C35.2278 20.086 36.0638 20.658 37.4058 20.658ZM47.4198 22H45.3518V5.808H47.4198V16.302L52.1938 11.242H54.7898L50.6758 15.532L54.7678 22H52.3918L49.2458 17.028L47.4198 18.942V22ZM55.2574 16.61C55.2574 13.288 57.6334 10.956 60.8674 10.956C64.0794 10.956 66.4554 13.288 66.4554 16.61C66.4554 19.932 64.0794 22.264 60.8674 22.264C57.6334 22.264 55.2574 19.932 55.2574 16.61ZM57.3474 16.61C57.3474 18.854 58.7774 20.416 60.8674 20.416C62.9354 20.416 64.3874 18.854 64.3874 16.61C64.3874 14.366 62.9354 12.804 60.8674 12.804C58.7774 12.804 57.3474 14.366 57.3474 16.61ZM70.7026 22H68.6346V11.242H70.4826L70.6806 12.65C71.2306 11.638 72.3746 10.934 73.8926 10.934C75.5646 10.934 76.7526 11.77 77.3026 13.112C77.8086 11.77 79.1066 10.934 80.7786 10.934C83.2426 10.934 84.7386 12.474 84.7386 14.96V22H82.7146V15.466C82.7146 13.772 81.7686 12.804 80.3166 12.804C78.7546 12.804 77.7206 13.904 77.7206 15.62V22H75.6746V15.444C75.6746 13.75 74.7506 12.826 73.2986 12.826C71.7366 12.826 70.7026 13.904 70.7026 15.62V22ZM88.5073 8.69C87.7593 8.69 87.1433 8.074 87.1433 7.326C87.1433 6.556 87.7593 5.962 88.5073 5.962C89.2553 5.962 89.8713 6.556 89.8713 7.326C89.8713 8.074 89.2553 8.69 88.5073 8.69ZM87.4953 22V11.242H89.5633V22H87.4953Z" fill="#0F172A"/>
</svg>
